<mxfile host="app.diagrams.net" modified="2024-08-15T07:52:37.579Z" agent="Mozilla/5.0 (Windows NT 10.0; Win64; x64) AppleWebKit/537.36 (KHTML, like Gecko) Chrome/127.0.0.0 Safari/537.36" version="24.6.4" etag="dRpp-44gn3JuslLYCUD_" type="github">
  <diagram name="Page-1" id="bYkRlfr2u-0tfls9egzj">
    <mxGraphModel>
      <root>
        <mxCell id="0" />
        <mxCell id="1" parent="0" />
      </root>
    </mxGraphModel>
  </diagram>
</mxfile>
